<svg xmlns="http://www.w3.org/2000/svg" width="1012.262" height="99.818"><defs><clipPath id="a"><path data-name="Rectangle 7408" fill="#ded7c3" d="M0 0h3.355v3.356H0z"/></clipPath></defs><g data-name="Group 9712"><g data-name="Group 9710"><path data-name="c21 square" d="M801.518 9.054a4.507 4.507 0 0 0 2.909-1.059l-.993-1.431a2.8 2.8 0 1 1 0-4.073l.993-1.431a4.527 4.527 0 1 0-2.909 7.994ZM839.739 0v6.085L835.527 0h-1.729v9.054h1.729V2.969l4.212 6.085h1.729V0Zm-38.165 27.231v-7.325h2.672v-1.729h-7.073v1.729h2.672v7.325Zm20.638-19.907h-4.307V5.391h3.454V3.662h-3.458V1.729h4.307V0h-6.036v9.054h6.036ZM821.197 23.5a2.002 2.002 0 1 1-4.005 0v-5.324h-1.733V23.5a3.732 3.732 0 1 0 7.463 0v-5.324h-1.729Zm.266 17.378.045-.065a2.862 2.862 0 1 0-5.236-1.6v.107h1.732v-.107a1.134 1.134 0 0 1 1.133-1.133 1.1 1.1 0 0 1 1.133 1.133 2.25 2.25 0 0 1-.364.88c-.1.141-3.677 5.312-3.677 5.312h5.94V43.68h-2.641Zm19.644-19.662a3.043 3.043 0 0 0-3.039-3.039h-3.909v9.053h1.729v-2.975h1.1l2.06 2.975h2.055l-2.151-3.107a3.045 3.045 0 0 0 2.155-2.906Zm-3.039 1.311h-2.179v-2.621h2.179a1.31 1.31 0 0 1 0 2.621Zm-2 15.557h.941v7.324h1.729v-9.053h-2.67Zm-35.359 1.933-2.535-3.662h-2.055l3.726 5.382v3.672h1.729v-3.672l3.726-5.382h-2.055Zm57.74-30.963a4.507 4.507 0 0 0 2.909-1.059l-.993-1.431a2.8 2.8 0 1 1 0-4.073l.993-1.431a4.527 4.527 0 1 0-2.909 7.994ZM896.67 0v6.085L892.458 0h-1.729v9.054h1.729V2.969l4.212 6.085h1.729V0Zm-38.165 27.231v-7.325h2.672v-1.729h-7.073v1.729h2.672v7.325Zm20.638-19.907h-4.307V5.391h3.454V3.662h-3.458V1.729h4.307V0h-6.036v9.054h6.036ZM878.128 23.5a2.002 2.002 0 1 1-4.005 0v-5.324h-1.733V23.5a3.732 3.732 0 1 0 7.463 0v-5.324h-1.729Zm.266 17.378.045-.065a2.862 2.862 0 1 0-5.236-1.6v.107h1.732v-.107a1.134 1.134 0 0 1 1.133-1.133 1.1 1.1 0 0 1 1.133 1.133 2.25 2.25 0 0 1-.364.88c-.1.141-3.677 5.312-3.677 5.312h5.94V43.68h-2.641Zm19.644-19.662a3.043 3.043 0 0 0-3.039-3.039h-3.909v9.053h1.729v-2.975h1.1l2.06 2.975h2.055l-2.151-3.107a3.045 3.045 0 0 0 2.155-2.906Zm-3.039 1.311h-2.179v-2.621h2.179a1.31 1.31 0 0 1 0 2.621Zm-2 15.557h.941v7.324h1.729v-9.053h-2.67Zm-35.359 1.933-2.535-3.662h-2.055l3.726 5.382v3.672h1.729v-3.672l3.726-5.382h-2.055Z" fill="#ded7c3"/><g data-name="Group 9688" transform="translate(263.991 7.378)" clip-path="url(#a)"><path data-name="Path 45229" d="M1.679 0A1.721 1.721 0 0 1 2.5.217a1.544 1.544 0 0 1 .627.621 1.686 1.686 0 0 1 0 1.676 1.56 1.56 0 0 1-.62.621 1.686 1.686 0 0 1-1.67 0 1.566 1.566 0 0 1-.621-.621 1.68 1.68 0 0 1 0-1.676A1.546 1.546 0 0 1 .854.217 1.722 1.722 0 0 1 1.679 0m0 .278A1.429 1.429 0 0 0 .99.459a1.3 1.3 0 0 0-.524.518 1.418 1.418 0 0 0-.189.7 1.4 1.4 0 0 0 .186.695 1.318 1.318 0 0 0 .519.518 1.4 1.4 0 0 0 1.393 0 1.313 1.313 0 0 0 .518-.518 1.4 1.4 0 0 0 0-1.4 1.292 1.292 0 0 0-.527-.513 1.431 1.431 0 0 0-.687-.181M.943 2.606V.8h.62a1.51 1.51 0 0 1 .46.051.449.449 0 0 1 .227.174.467.467 0 0 1 .084.264.482.482 0 0 1-.141.345.56.56 0 0 1-.375.165.515.515 0 0 1 .154.1 2.065 2.065 0 0 1 .267.358l.22.353H2.1l-.16-.285a1.463 1.463 0 0 0-.3-.42.374.374 0 0 0-.233-.062h-.173v.767Zm.291-1.016h.353a.568.568 0 0 0 .346-.076.245.245 0 0 0 .092-.2.243.243 0 0 0-.044-.143.265.265 0 0 0-.124-.1.929.929 0 0 0-.292-.031h-.331Z" fill="#ded7c3"/></g><g data-name="Group 9700"><g data-name="Group 9688" transform="translate(716.972 7.378)" clip-path="url(#a)"><path data-name="Path 45229" d="M1.679 0A1.721 1.721 0 0 1 2.5.217a1.544 1.544 0 0 1 .627.621 1.686 1.686 0 0 1 0 1.676 1.56 1.56 0 0 1-.62.621 1.686 1.686 0 0 1-1.67 0 1.566 1.566 0 0 1-.621-.621 1.68 1.68 0 0 1 0-1.676A1.546 1.546 0 0 1 .854.217 1.722 1.722 0 0 1 1.679 0m0 .278A1.429 1.429 0 0 0 .99.459a1.3 1.3 0 0 0-.524.518 1.418 1.418 0 0 0-.189.7 1.4 1.4 0 0 0 .186.695 1.318 1.318 0 0 0 .519.518 1.4 1.4 0 0 0 1.393 0 1.313 1.313 0 0 0 .518-.518 1.4 1.4 0 0 0 0-1.4 1.292 1.292 0 0 0-.527-.513 1.431 1.431 0 0 0-.687-.181M.943 2.606V.8h.62a1.51 1.51 0 0 1 .46.051.449.449 0 0 1 .227.174.467.467 0 0 1 .084.264.482.482 0 0 1-.141.345.56.56 0 0 1-.375.165.515.515 0 0 1 .154.1 2.065 2.065 0 0 1 .267.358l.22.353H2.1l-.16-.285a1.463 1.463 0 0 0-.3-.42.374.374 0 0 0-.233-.062h-.173v.767Zm.291-1.016h.353a.568.568 0 0 0 .346-.076.245.245 0 0 0 .092-.2.243.243 0 0 0-.044-.143.265.265 0 0 0-.124-.1.929.929 0 0 0-.292-.031h-.331Z" fill="#ded7c3"/></g></g><path data-name="c21 square" d="M5.399 9.054a4.507 4.507 0 0 0 2.909-1.059l-.993-1.431a2.8 2.8 0 1 1 0-4.073l.993-1.431a4.527 4.527 0 1 0-2.909 7.994ZM43.62 0v6.085L39.408 0h-1.729v9.054h1.729V2.969l4.212 6.085h1.729V0ZM5.455 27.231v-7.325h2.672v-1.729H1.054v1.729h2.672v7.325ZM26.093 7.324h-4.307V5.391h3.454V3.662h-3.458V1.729h4.307V0h-6.036v9.054h6.036ZM25.078 23.5a2.002 2.002 0 1 1-4.005 0v-5.324H19.34V23.5a3.732 3.732 0 1 0 7.463 0v-5.324h-1.729Zm.266 17.378.045-.065a2.862 2.862 0 1 0-5.236-1.6v.107h1.732v-.107a1.134 1.134 0 0 1 1.133-1.133 1.1 1.1 0 0 1 1.133 1.133 2.25 2.25 0 0 1-.364.88c-.1.141-3.677 5.312-3.677 5.312h5.94V43.68h-2.641Zm19.644-19.662a3.043 3.043 0 0 0-3.039-3.039H38.04v9.053h1.729v-2.975h1.1l2.06 2.975h2.055l-2.151-3.107a3.045 3.045 0 0 0 2.155-2.906Zm-3.039 1.311H39.77v-2.621h2.179a1.31 1.31 0 0 1 0 2.621Zm-2 15.557h.941v7.324h1.729v-9.053h-2.67ZM4.59 40.017l-2.535-3.662H0l3.726 5.382v3.672h1.729v-3.672l3.726-5.382H7.126ZM460.848 9.054a4.507 4.507 0 0 0 2.909-1.059l-.993-1.431a2.8 2.8 0 1 1 0-4.073l.993-1.431a4.527 4.527 0 1 0-2.909 7.994ZM499.069 0v6.085L494.857 0h-1.729v9.054h1.729V2.969l4.212 6.085h1.729V0Zm-38.165 27.231v-7.325h2.672v-1.729h-7.073v1.729h2.672v7.325Zm20.638-19.907h-4.307V5.391h3.454V3.662h-3.458V1.729h4.307V0h-6.036v9.054h6.036ZM480.527 23.5a2.002 2.002 0 1 1-4.005 0v-5.324h-1.733V23.5a3.732 3.732 0 1 0 7.463 0v-5.324h-1.729Zm.266 17.378.045-.065a2.862 2.862 0 1 0-5.236-1.6v.107h1.732v-.107a1.134 1.134 0 0 1 1.133-1.133 1.1 1.1 0 0 1 1.133 1.133 2.25 2.25 0 0 1-.364.88c-.1.141-3.677 5.312-3.677 5.312h5.94V43.68h-2.641Zm19.644-19.662a3.043 3.043 0 0 0-3.039-3.039h-3.909v9.053h1.729v-2.975h1.1l2.06 2.975h2.055l-2.151-3.107a3.045 3.045 0 0 0 2.155-2.906Zm-3.039 1.311h-2.179v-2.621h2.179a1.31 1.31 0 0 1 0 2.621Zm-2 15.557h.941v7.324h1.729v-9.053h-2.67Zm-35.359 1.933-2.535-3.662h-2.055l3.726 5.382v3.672h1.729v-3.672l3.726-5.382h-2.055ZM233.124 9.054a4.507 4.507 0 0 0 2.909-1.059l-.993-1.431a2.8 2.8 0 1 1 0-4.073l.993-1.431a4.527 4.527 0 1 0-2.909 7.994ZM271.345 0v6.085L267.133 0h-1.729v9.054h1.729V2.969l4.212 6.085h1.729V0ZM233.18 27.231v-7.325h2.672v-1.729h-7.073v1.729h2.672v7.325Zm20.638-19.907h-4.307V5.391h3.454V3.662h-3.458V1.729h4.307V0h-6.036v9.054h6.036ZM252.803 23.5a2.002 2.002 0 1 1-4.005 0v-5.324h-1.733V23.5a3.732 3.732 0 1 0 7.463 0v-5.324h-1.729Zm.266 17.378.045-.065a2.862 2.862 0 1 0-5.236-1.6v.107h1.732v-.107a1.134 1.134 0 0 1 1.133-1.133 1.1 1.1 0 0 1 1.133 1.133 2.25 2.25 0 0 1-.364.88c-.1.141-3.677 5.312-3.677 5.312h5.94V43.68h-2.641Zm19.644-19.662a3.043 3.043 0 0 0-3.039-3.039h-3.909v9.053h1.729v-2.975h1.1l2.06 2.975h2.055l-2.151-3.107a3.045 3.045 0 0 0 2.155-2.906Zm-3.039 1.311h-2.179v-2.621h2.179a1.31 1.31 0 0 1 0 2.621Zm-2 15.557h.941v7.324h1.729v-9.053h-2.67Zm-35.359 1.933-2.535-3.662h-2.055l3.726 5.382v3.672h1.729v-3.672l3.726-5.382h-2.055ZM687.656 9.054a4.507 4.507 0 0 0 2.909-1.059l-.993-1.431a2.8 2.8 0 1 1 0-4.073l.993-1.431a4.527 4.527 0 1 0-2.909 7.994ZM725.877 0v6.085L721.665 0h-1.729v9.054h1.729V2.969l4.212 6.085h1.729V0Zm-38.165 27.231v-7.325h2.672v-1.729h-7.073v1.729h2.672v7.325ZM708.35 7.324h-4.307V5.391h3.454V3.662h-3.458V1.729h4.307V0h-6.036v9.054h6.036ZM707.335 23.5a2.002 2.002 0 1 1-4.005 0v-5.324h-1.733V23.5a3.732 3.732 0 1 0 7.463 0v-5.324h-1.729Zm.266 17.378.045-.065a2.862 2.862 0 1 0-5.236-1.6v.107h1.732v-.107a1.134 1.134 0 0 1 1.133-1.133 1.1 1.1 0 0 1 1.133 1.133 2.25 2.25 0 0 1-.364.88c-.1.141-3.677 5.312-3.677 5.312h5.94V43.68h-2.641Zm19.644-19.662a3.043 3.043 0 0 0-3.039-3.039h-3.909v9.053h1.729v-2.975h1.1l2.06 2.975h2.055l-2.151-3.107a3.045 3.045 0 0 0 2.155-2.906Zm-3.039 1.311h-2.179v-2.621h2.179a1.31 1.31 0 0 1 0 2.621Zm-2 15.557h.941v7.324h1.729v-9.053h-2.67Zm-35.359 1.933-2.535-3.662h-2.055l3.726 5.382v3.672h1.729v-3.672l3.726-5.382h-2.055ZM119.262 9.054a4.507 4.507 0 0 0 2.909-1.059l-.993-1.431a2.8 2.8 0 1 1 0-4.073l.993-1.431a4.527 4.527 0 1 0-2.909 7.994ZM157.483 0v6.085L153.271 0h-1.729v9.054h1.729V2.969l4.212 6.085h1.729V0Zm-38.165 27.231v-7.325h2.672v-1.729h-7.073v1.729h2.672v7.325Zm20.638-19.907h-4.307V5.391h3.454V3.662h-3.458V1.729h4.307V0h-6.036v9.054h6.036ZM138.941 23.5a2.002 2.002 0 1 1-4.005 0v-5.324h-1.733V23.5a3.732 3.732 0 1 0 7.463 0v-5.324h-1.729Zm.266 17.378.045-.065a2.862 2.862 0 1 0-5.236-1.6v.107h1.732v-.107a1.134 1.134 0 0 1 1.133-1.133 1.1 1.1 0 0 1 1.133 1.133 2.25 2.25 0 0 1-.364.88c-.1.141-3.677 5.312-3.677 5.312h5.94V43.68h-2.641Zm19.644-19.662a3.043 3.043 0 0 0-3.039-3.039h-3.909v9.053h1.729v-2.975h1.1l2.06 2.975h2.055l-2.151-3.107a3.045 3.045 0 0 0 2.155-2.906Zm-3.039 1.311h-2.179v-2.621h2.179a1.31 1.31 0 0 1 0 2.621Zm-2 15.557h.941v7.324h1.729v-9.053h-2.67Zm-35.359 1.933-2.535-3.662h-2.055l3.726 5.382v3.672h1.729v-3.672l3.726-5.382h-2.055Zm455.34-30.963a4.507 4.507 0 0 0 2.909-1.059l-.993-1.431a2.8 2.8 0 1 1 0-4.073l.993-1.431a4.527 4.527 0 1 0-2.909 7.994ZM612.014 0v6.085L607.802 0h-1.729v9.054h1.729V2.969l4.212 6.085h1.729V0Zm-38.165 27.231v-7.325h2.672v-1.729h-7.073v1.729h2.672v7.325Zm20.638-19.907h-4.307V5.391h3.454V3.662h-3.458V1.729h4.307V0h-6.036v9.054h6.036ZM593.472 23.5a2.002 2.002 0 1 1-4.005 0v-5.324h-1.733V23.5a3.732 3.732 0 1 0 7.463 0v-5.324h-1.729Zm.266 17.378.045-.065a2.862 2.862 0 1 0-5.236-1.6v.107h1.732v-.107a1.134 1.134 0 0 1 1.133-1.133 1.1 1.1 0 0 1 1.133 1.133 2.25 2.25 0 0 1-.364.88c-.1.141-3.677 5.312-3.677 5.312h5.94V43.68h-2.641Zm19.644-19.662a3.043 3.043 0 0 0-3.039-3.039h-3.909v9.053h1.729v-2.975h1.1l2.06 2.975h2.055l-2.151-3.107a3.045 3.045 0 0 0 2.155-2.906Zm-3.039 1.311h-2.179v-2.621h2.179a1.31 1.31 0 0 1 0 2.621Zm-2 15.557h.941v7.324h1.729v-9.053h-2.67Zm-35.359 1.933-2.535-3.662h-2.055l3.726 5.382v3.672h1.729v-3.672l3.726-5.382h-2.055ZM972.312 9.054a4.507 4.507 0 0 0 2.909-1.059l-.993-1.431a2.8 2.8 0 1 1 0-4.073l.993-1.431a4.527 4.527 0 1 0-2.909 7.994ZM1010.533 0v6.085L1006.321 0h-1.729v9.054h1.729V2.969l4.212 6.085h1.729V0Zm-38.165 27.231v-7.325h2.672v-1.729h-7.073v1.729h2.672v7.325Zm20.638-19.907h-4.307V5.391h3.454V3.662h-3.458V1.729h4.307V0h-6.036v9.054h6.036ZM991.991 23.5a2.002 2.002 0 1 1-4.005 0v-5.324h-1.733V23.5a3.732 3.732 0 1 0 7.463 0v-5.324h-1.729Zm.266 17.378.045-.065a2.862 2.862 0 1 0-5.236-1.6v.107h1.732v-.107a1.134 1.134 0 0 1 1.133-1.133 1.1 1.1 0 0 1 1.133 1.133 2.25 2.25 0 0 1-.364.88c-.1.141-3.677 5.312-3.677 5.312h5.94V43.68h-2.641Zm19.644-19.662a3.043 3.043 0 0 0-3.039-3.039h-3.909v9.053h1.729v-2.975h1.1l2.06 2.975h2.055l-2.151-3.107a3.045 3.045 0 0 0 2.155-2.906Zm-3.039 1.311h-2.179v-2.621h2.179a1.31 1.31 0 0 1 0 2.621Zm-2 15.557h.941v7.324h1.729v-9.053h-2.67Zm-35.359 1.933-2.535-3.662h-2.055l3.726 5.382v3.672h1.729v-3.672l3.726-5.382h-2.055ZM346.987 9.054a4.507 4.507 0 0 0 2.909-1.059l-.993-1.431a2.8 2.8 0 1 1 0-4.073l.993-1.431a4.527 4.527 0 1 0-2.909 7.994ZM385.208 0v6.085L380.996 0h-1.729v9.054h1.729V2.969l4.212 6.085h1.729V0Zm-38.165 27.231v-7.325h2.672v-1.729h-7.073v1.729h2.672v7.325Zm20.638-19.907h-4.307V5.391h3.454V3.662h-3.458V1.729h4.307V0h-6.036v9.054h6.036ZM366.666 23.5a2.002 2.002 0 1 1-4.005 0v-5.324h-1.733V23.5a3.732 3.732 0 1 0 7.463 0v-5.324h-1.729Zm.266 17.378.045-.065a2.862 2.862 0 1 0-5.236-1.6v.107h1.732v-.107a1.134 1.134 0 0 1 1.133-1.133 1.1 1.1 0 0 1 1.133 1.133 2.25 2.25 0 0 1-.364.88c-.1.141-3.677 5.312-3.677 5.312h5.94V43.68h-2.641Zm19.644-19.662a3.043 3.043 0 0 0-3.039-3.039h-3.909v9.053h1.729v-2.975h1.1l2.06 2.975h2.055l-2.151-3.107a3.045 3.045 0 0 0 2.155-2.906Zm-3.039 1.311h-2.179v-2.621h2.179a1.31 1.31 0 0 1 0 2.621Zm-2 15.557h.941v7.324h1.729v-9.053h-2.67Zm-35.359 1.933-2.535-3.662h-2.055l3.726 5.382v3.672h1.729v-3.672l3.726-5.382h-2.055ZM62.33 9.054a4.507 4.507 0 0 0 2.909-1.059l-.993-1.431a2.8 2.8 0 1 1 0-4.073l.993-1.431a4.527 4.527 0 1 0-2.909 7.994ZM100.551 0v6.085L96.339 0H94.61v9.054h1.729V2.969l4.212 6.085h1.729V0ZM62.386 27.231v-7.325h2.672v-1.729h-7.073v1.729h2.672v7.325ZM83.024 7.324h-4.307V5.391h3.454V3.662h-3.458V1.729h4.307V0h-6.036v9.054h6.036ZM82.009 23.5a2.002 2.002 0 1 1-4.005 0v-5.324h-1.733V23.5a3.732 3.732 0 1 0 7.463 0v-5.324h-1.729Zm.266 17.378.045-.065a2.862 2.862 0 1 0-5.236-1.6v.107h1.732v-.107a1.134 1.134 0 0 1 1.133-1.133 1.1 1.1 0 0 1 1.133 1.133 2.25 2.25 0 0 1-.364.88c-.1.141-3.677 5.312-3.677 5.312h5.94V43.68H80.34Zm19.644-19.662a3.043 3.043 0 0 0-3.039-3.039h-3.909v9.053H96.7v-2.975h1.1l2.06 2.975h2.055l-2.151-3.107a3.045 3.045 0 0 0 2.155-2.906Zm-3.039 1.311h-2.179v-2.621h2.179a1.31 1.31 0 0 1 0 2.621Zm-2 15.557h.941v7.324h1.729v-9.053h-2.67Zm-35.359 1.933-2.535-3.662h-2.055l3.726 5.382v3.672h1.729v-3.672l3.726-5.382h-2.055ZM516.862 9.054a4.507 4.507 0 0 0 2.909-1.059l-.993-1.431a2.8 2.8 0 1 1 0-4.073l.993-1.431a4.527 4.527 0 1 0-2.909 7.994ZM555.083 0v6.085L550.871 0h-1.729v9.054h1.729V2.969l4.212 6.085h1.729V0Zm-38.165 27.231v-7.325h2.672v-1.729h-7.073v1.729h2.672v7.325Zm20.638-19.907h-4.307V5.391h3.454V3.662h-3.458V1.729h4.307V0h-6.036v9.054h6.036ZM536.541 23.5a2.002 2.002 0 1 1-4.005 0v-5.324h-1.733V23.5a3.732 3.732 0 1 0 7.463 0v-5.324h-1.729Zm.266 17.378.045-.065a2.862 2.862 0 1 0-5.236-1.6v.107h1.732v-.107a1.134 1.134 0 0 1 1.133-1.133 1.1 1.1 0 0 1 1.133 1.133 2.25 2.25 0 0 1-.364.88c-.1.141-3.677 5.312-3.677 5.312h5.94V43.68h-2.641Zm19.644-19.662a3.043 3.043 0 0 0-3.039-3.039h-3.909v9.053h1.729v-2.975h1.1l2.06 2.975h2.055l-2.151-3.107a3.045 3.045 0 0 0 2.155-2.906Zm-3.039 1.311h-2.179v-2.621h2.179a1.31 1.31 0 0 1 0 2.621Zm-2 15.557h.941v7.324h1.729v-9.053h-2.67Zm-35.359 1.933-2.535-3.662h-2.055l3.726 5.382v3.672h1.729v-3.672l3.726-5.382h-2.055ZM915.381 9.054a4.507 4.507 0 0 0 2.909-1.059l-.993-1.431a2.8 2.8 0 1 1 0-4.073l.993-1.431a4.527 4.527 0 1 0-2.909 7.994ZM953.602 0v6.085L949.39 0h-1.729v9.054h1.729V2.969l4.212 6.085h1.729V0Zm-38.165 27.231v-7.325h2.672v-1.729h-7.073v1.729h2.672v7.325Zm20.638-19.907h-4.307V5.391h3.454V3.662h-3.458V1.729h4.307V0h-6.036v9.054h6.036ZM935.06 23.5a2.002 2.002 0 1 1-4.005 0v-5.324h-1.733V23.5a3.732 3.732 0 1 0 7.463 0v-5.324h-1.729Zm.266 17.378.045-.065a2.862 2.862 0 1 0-5.236-1.6v.107h1.732v-.107A1.134 1.134 0 0 1 933 38.08a1.1 1.1 0 0 1 1.133 1.133 2.25 2.25 0 0 1-.364.88c-.1.141-3.677 5.312-3.677 5.312h5.94V43.68h-2.641Zm19.644-19.662a3.043 3.043 0 0 0-3.039-3.039h-3.909v9.053h1.729v-2.975h1.1l2.06 2.975h2.055l-2.151-3.107a3.045 3.045 0 0 0 2.155-2.906Zm-3.039 1.311h-2.179v-2.621h2.179a1.31 1.31 0 0 1 0 2.621Zm-2 15.557h.941v7.324h1.729v-9.053h-2.67Zm-35.359 1.933-2.535-3.662h-2.055l3.726 5.382v3.672h1.729v-3.672l3.726-5.382h-2.055ZM290.055 9.054a4.507 4.507 0 0 0 2.909-1.059l-.993-1.431a2.8 2.8 0 1 1 0-4.073l.993-1.431a4.527 4.527 0 1 0-2.909 7.994ZM328.276 0v6.085L324.064 0h-1.729v9.054h1.729V2.969l4.212 6.085h1.729V0Zm-38.165 27.231v-7.325h2.672v-1.729h-7.073v1.729h2.672v7.325Zm20.638-19.907h-4.307V5.391h3.454V3.662h-3.458V1.729h4.307V0h-6.036v9.054h6.036ZM309.734 23.5a2.002 2.002 0 1 1-4.005 0v-5.324h-1.733V23.5a3.732 3.732 0 1 0 7.463 0v-5.324h-1.729ZM310 40.878l.045-.065a2.862 2.862 0 1 0-5.236-1.6v.107h1.732v-.107a1.134 1.134 0 0 1 1.133-1.133 1.1 1.1 0 0 1 1.133 1.133 2.25 2.25 0 0 1-.364.88c-.1.141-3.677 5.312-3.677 5.312h5.94V43.68h-2.641Zm19.644-19.662a3.043 3.043 0 0 0-3.039-3.039h-3.909v9.053h1.729v-2.975h1.1l2.06 2.975h2.055l-2.151-3.107a3.045 3.045 0 0 0 2.155-2.906Zm-3.039 1.311h-2.179v-2.621h2.179a1.31 1.31 0 0 1 0 2.621Zm-2 15.557h.941v7.324h1.729v-9.053h-2.67Zm-35.359 1.933-2.535-3.662h-2.055l3.726 5.382v3.672h1.729v-3.672l3.726-5.382h-2.055ZM744.587 9.054a4.507 4.507 0 0 0 2.909-1.059l-.993-1.431a2.8 2.8 0 1 1 0-4.073l.993-1.431a4.527 4.527 0 1 0-2.909 7.994ZM782.808 0v6.085L778.596 0h-1.729v9.054h1.729V2.969l4.212 6.085h1.729V0Zm-38.165 27.231v-7.325h2.672v-1.729h-7.073v1.729h2.672v7.325Zm20.638-19.907h-4.307V5.391h3.454V3.662h-3.458V1.729h4.307V0h-6.036v9.054h6.036ZM764.266 23.5a2.002 2.002 0 1 1-4.005 0v-5.324h-1.733V23.5a3.732 3.732 0 1 0 7.463 0v-5.324h-1.729Zm.266 17.378.045-.065a2.862 2.862 0 1 0-5.236-1.6v.107h1.732v-.107a1.134 1.134 0 0 1 1.133-1.133 1.1 1.1 0 0 1 1.133 1.133 2.25 2.25 0 0 1-.364.88c-.1.141-3.677 5.312-3.677 5.312h5.94V43.68h-2.641Zm19.644-19.662a3.043 3.043 0 0 0-3.039-3.039h-3.909v9.053h1.729v-2.975h1.1l2.06 2.975h2.055l-2.151-3.107a3.045 3.045 0 0 0 2.155-2.906Zm-3.039 1.311h-2.179v-2.621h2.179a1.31 1.31 0 0 1 0 2.621Zm-2 15.557h.941v7.324h1.729v-9.053h-2.67Zm-35.359 1.933-2.535-3.662h-2.055l3.726 5.382v3.672h1.729v-3.672l3.726-5.382h-2.055ZM176.193 9.054a4.507 4.507 0 0 0 2.909-1.059l-.993-1.431a2.8 2.8 0 1 1 0-4.073l.993-1.431a4.527 4.527 0 1 0-2.909 7.994ZM214.414 0v6.085L210.202 0h-1.729v9.054h1.729V2.969l4.212 6.085h1.729V0Zm-38.165 27.231v-7.325h2.672v-1.729h-7.073v1.729h2.672v7.325Zm20.638-19.907h-4.307V5.391h3.454V3.662h-3.458V1.729h4.307V0h-6.036v9.054h6.036ZM195.872 23.5a2.002 2.002 0 1 1-4.005 0v-5.324h-1.733V23.5a3.732 3.732 0 1 0 7.463 0v-5.324h-1.729Zm.266 17.378.045-.065a2.862 2.862 0 1 0-5.236-1.6v.107h1.732v-.107a1.134 1.134 0 0 1 1.133-1.133 1.1 1.1 0 0 1 1.133 1.133 2.25 2.25 0 0 1-.364.88c-.1.141-3.677 5.312-3.677 5.312h5.94V43.68h-2.641Zm19.644-19.662a3.043 3.043 0 0 0-3.039-3.039h-3.909v9.053h1.729v-2.975h1.1l2.06 2.975h2.055l-2.151-3.107a3.045 3.045 0 0 0 2.155-2.906Zm-3.039 1.311h-2.179v-2.621h2.179a1.31 1.31 0 0 1 0 2.621Zm-2 15.557h.941v7.324h1.729v-9.053h-2.67Zm-35.359 1.933-2.535-3.662h-2.055l3.726 5.382v3.672h1.729v-3.672l3.726-5.382h-2.055Zm455.34-30.963a4.507 4.507 0 0 0 2.909-1.059l-.993-1.431a2.8 2.8 0 1 1 0-4.073l.993-1.431a4.527 4.527 0 1 0-2.909 7.994ZM668.945 0v6.085L664.733 0h-1.729v9.054h1.729V2.969l4.212 6.085h1.729V0ZM630.78 27.231v-7.325h2.672v-1.729h-7.073v1.729h2.672v7.325Zm20.638-19.907h-4.307V5.391h3.454V3.662h-3.458V1.729h4.307V0h-6.036v9.054h6.036ZM650.403 23.5a2.002 2.002 0 1 1-4.005 0v-5.324h-1.733V23.5a3.732 3.732 0 1 0 7.463 0v-5.324h-1.729Zm.266 17.378.045-.065a2.862 2.862 0 1 0-5.236-1.6v.107h1.732v-.107a1.134 1.134 0 0 1 1.133-1.133 1.1 1.1 0 0 1 1.133 1.133 2.25 2.25 0 0 1-.364.88c-.1.141-3.677 5.312-3.677 5.312h5.94V43.68h-2.641Zm19.644-19.662a3.043 3.043 0 0 0-3.039-3.039h-3.909v9.053h1.729v-2.975h1.1l2.06 2.975h2.055l-2.151-3.107a3.045 3.045 0 0 0 2.155-2.906Zm-3.039 1.311h-2.179v-2.621h2.179a1.31 1.31 0 0 1 0 2.621Zm-2 15.557h.941v7.324h1.729v-9.053h-2.67Zm-35.359 1.933-2.535-3.662h-2.055l3.726 5.382v3.672h1.729v-3.672l3.726-5.382h-2.055ZM403.917 9.054a4.507 4.507 0 0 0 2.909-1.059l-.993-1.431a2.8 2.8 0 1 1 0-4.073l.993-1.431a4.527 4.527 0 1 0-2.909 7.994ZM442.138 0v6.085L437.926 0h-1.729v9.054h1.729V2.969l4.212 6.085h1.729V0Zm-38.165 27.231v-7.325h2.672v-1.729h-7.073v1.729h2.672v7.325Zm20.638-19.907h-4.307V5.391h3.454V3.662H420.3V1.729h4.307V0h-6.036v9.054h6.036ZM423.596 23.5a2.002 2.002 0 1 1-4.005 0v-5.324h-1.733V23.5a3.732 3.732 0 1 0 7.463 0v-5.324h-1.729Zm.266 17.378.045-.065a2.862 2.862 0 1 0-5.236-1.6v.107h1.732v-.107a1.134 1.134 0 0 1 1.133-1.133 1.1 1.1 0 0 1 1.133 1.133 2.25 2.25 0 0 1-.364.88c-.1.141-3.677 5.312-3.677 5.312h5.94V43.68h-2.641Zm19.644-19.662a3.043 3.043 0 0 0-3.039-3.039h-3.909v9.053h1.729v-2.975h1.1l2.06 2.975h2.055l-2.151-3.107a3.045 3.045 0 0 0 2.155-2.906Zm-3.039 1.311h-2.179v-2.621h2.179a1.31 1.31 0 0 1 0 2.621Zm-2 15.557h.941v7.324h1.729v-9.053h-2.67Zm-35.359 1.933-2.535-3.662h-2.055l3.726 5.382v3.672h1.729v-3.672l3.726-5.382h-2.055Z" fill="#ded7c3"/></g><g data-name="Group 9711"><path data-name="c21 square" d="M801.518 63.463a4.507 4.507 0 0 0 2.909-1.059l-.993-1.431a2.8 2.8 0 1 1 0-4.073l.993-1.431a4.527 4.527 0 1 0-2.909 7.994Zm38.221-9.054v6.085l-4.212-6.085h-1.729v9.054h1.729v-6.085l4.212 6.085h1.729v-9.054ZM801.574 81.64v-7.325h2.672v-1.729h-7.073v1.729h2.672v7.325Zm20.638-19.907h-4.307V59.8h3.454v-1.729h-3.458v-1.933h4.307v-1.729h-6.036v9.054h6.036Zm-1.015 16.176a2.002 2.002 0 1 1-4.005 0v-5.324h-1.733v5.324a3.732 3.732 0 1 0 7.463 0v-5.324h-1.729Zm.266 17.378.045-.065a2.862 2.862 0 1 0-5.236-1.6v.107h1.732v-.107a1.134 1.134 0 0 1 1.133-1.133 1.1 1.1 0 0 1 1.133 1.133 2.25 2.25 0 0 1-.364.88c-.1.141-3.677 5.312-3.677 5.312h5.94v-1.725h-2.641Zm19.644-19.662a3.043 3.043 0 0 0-3.039-3.039h-3.909v9.053h1.729v-2.975h1.1l2.06 2.975h2.055l-2.151-3.107a3.045 3.045 0 0 0 2.155-2.906Zm-3.039 1.311h-2.179v-2.621h2.179a1.31 1.31 0 0 1 0 2.621Zm-2 15.557h.941v7.324h1.729v-9.053h-2.67Zm-35.359 1.933-2.535-3.662h-2.055l3.726 5.382v3.672h1.729v-3.672l3.726-5.382h-2.055Zm57.74-30.963a4.507 4.507 0 0 0 2.909-1.059l-.993-1.431a2.8 2.8 0 1 1 0-4.073l.993-1.431a4.527 4.527 0 1 0-2.909 7.994Zm38.221-9.054v6.085l-4.212-6.085h-1.729v9.054h1.729v-6.085l4.212 6.085h1.729v-9.054ZM858.505 81.64v-7.325h2.672v-1.729h-7.073v1.729h2.672v7.325Zm20.638-19.907h-4.307V59.8h3.454v-1.729h-3.458v-1.933h4.307v-1.729h-6.036v9.054h6.036Zm-1.015 16.176a2.002 2.002 0 1 1-4.005 0v-5.324h-1.733v5.324a3.732 3.732 0 1 0 7.463 0v-5.324h-1.729Zm.266 17.378.045-.065a2.862 2.862 0 1 0-5.236-1.6v.107h1.732v-.107a1.134 1.134 0 0 1 1.133-1.133 1.1 1.1 0 0 1 1.133 1.133 2.25 2.25 0 0 1-.364.88c-.1.141-3.677 5.312-3.677 5.312h5.94v-1.725h-2.641Zm19.644-19.662a3.043 3.043 0 0 0-3.039-3.039h-3.909v9.053h1.729v-2.975h1.1l2.06 2.975h2.055l-2.151-3.107a3.045 3.045 0 0 0 2.155-2.906Zm-3.039 1.311h-2.179v-2.621h2.179a1.31 1.31 0 0 1 0 2.621Zm-2 15.557h.941v7.324h1.729v-9.053h-2.67Zm-35.359 1.933-2.535-3.662h-2.055l3.726 5.382v3.672h1.729v-3.672l3.726-5.382h-2.055Z" fill="#ded7c3"/><g data-name="Group 9688" transform="translate(263.991 61.787)" clip-path="url(#a)"><path data-name="Path 45229" d="M1.679 0A1.721 1.721 0 0 1 2.5.217a1.544 1.544 0 0 1 .627.621 1.686 1.686 0 0 1 0 1.676 1.56 1.56 0 0 1-.62.621 1.686 1.686 0 0 1-1.67 0 1.566 1.566 0 0 1-.621-.621 1.68 1.68 0 0 1 0-1.676A1.546 1.546 0 0 1 .854.217 1.722 1.722 0 0 1 1.679 0m0 .278A1.429 1.429 0 0 0 .99.459a1.3 1.3 0 0 0-.524.518 1.418 1.418 0 0 0-.189.7 1.4 1.4 0 0 0 .186.695 1.318 1.318 0 0 0 .519.518 1.4 1.4 0 0 0 1.393 0 1.313 1.313 0 0 0 .518-.518 1.4 1.4 0 0 0 0-1.4 1.292 1.292 0 0 0-.527-.513 1.431 1.431 0 0 0-.687-.181M.943 2.606V.8h.62a1.51 1.51 0 0 1 .46.051.449.449 0 0 1 .227.174.467.467 0 0 1 .084.264.482.482 0 0 1-.141.345.56.56 0 0 1-.375.165.515.515 0 0 1 .154.1 2.065 2.065 0 0 1 .267.358l.22.353H2.1l-.16-.285a1.463 1.463 0 0 0-.3-.42.374.374 0 0 0-.233-.062h-.173v.767Zm.291-1.016h.353a.568.568 0 0 0 .346-.076.245.245 0 0 0 .092-.2.243.243 0 0 0-.044-.143.265.265 0 0 0-.124-.1.929.929 0 0 0-.292-.031h-.331Z" fill="#ded7c3"/></g><g data-name="Group 9700"><g data-name="Group 9688" transform="translate(716.972 61.787)" clip-path="url(#a)"><path data-name="Path 45229" d="M1.679 0A1.721 1.721 0 0 1 2.5.217a1.544 1.544 0 0 1 .627.621 1.686 1.686 0 0 1 0 1.676 1.56 1.56 0 0 1-.62.621 1.686 1.686 0 0 1-1.67 0 1.566 1.566 0 0 1-.621-.621 1.68 1.68 0 0 1 0-1.676A1.546 1.546 0 0 1 .854.217 1.722 1.722 0 0 1 1.679 0m0 .278A1.429 1.429 0 0 0 .99.459a1.3 1.3 0 0 0-.524.518 1.418 1.418 0 0 0-.189.7 1.4 1.4 0 0 0 .186.695 1.318 1.318 0 0 0 .519.518 1.4 1.4 0 0 0 1.393 0 1.313 1.313 0 0 0 .518-.518 1.4 1.4 0 0 0 0-1.4 1.292 1.292 0 0 0-.527-.513 1.431 1.431 0 0 0-.687-.181M.943 2.606V.8h.62a1.51 1.51 0 0 1 .46.051.449.449 0 0 1 .227.174.467.467 0 0 1 .084.264.482.482 0 0 1-.141.345.56.56 0 0 1-.375.165.515.515 0 0 1 .154.1 2.065 2.065 0 0 1 .267.358l.22.353H2.1l-.16-.285a1.463 1.463 0 0 0-.3-.42.374.374 0 0 0-.233-.062h-.173v.767Zm.291-1.016h.353a.568.568 0 0 0 .346-.076.245.245 0 0 0 .092-.2.243.243 0 0 0-.044-.143.265.265 0 0 0-.124-.1.929.929 0 0 0-.292-.031h-.331Z" fill="#ded7c3"/></g></g><path data-name="c21 square" d="M5.399 63.463a4.507 4.507 0 0 0 2.909-1.059l-.993-1.431a2.8 2.8 0 1 1 0-4.073l.993-1.431a4.527 4.527 0 1 0-2.909 7.994Zm38.221-9.054v6.085l-4.212-6.085h-1.729v9.054h1.729v-6.085l4.212 6.085h1.729v-9.054ZM5.455 81.64v-7.325h2.672v-1.729H1.054v1.729h2.672v7.325Zm20.638-19.907h-4.307V59.8h3.454v-1.729h-3.458v-1.933h4.307v-1.729h-6.036v9.054h6.036Zm-1.015 16.176a2.002 2.002 0 1 1-4.005 0v-5.324H19.34v5.324a3.732 3.732 0 1 0 7.463 0v-5.324h-1.729Zm.266 17.378.045-.065a2.862 2.862 0 1 0-5.236-1.6v.107h1.732v-.107a1.134 1.134 0 0 1 1.133-1.133 1.1 1.1 0 0 1 1.133 1.133 2.25 2.25 0 0 1-.364.88c-.1.141-3.677 5.312-3.677 5.312h5.94v-1.725h-2.641Zm19.644-19.662a3.043 3.043 0 0 0-3.039-3.039H38.04v9.053h1.729v-2.975h1.1l2.06 2.975h2.055l-2.151-3.107a3.045 3.045 0 0 0 2.155-2.906Zm-3.039 1.311H39.77v-2.621h2.179a1.31 1.31 0 0 1 0 2.621Zm-2 15.557h.941v7.324h1.729v-9.053h-2.67ZM4.59 94.426l-2.535-3.662H0l3.726 5.382v3.672h1.729v-3.672l3.726-5.382H7.126Zm456.258-30.963a4.507 4.507 0 0 0 2.909-1.059l-.993-1.431a2.8 2.8 0 1 1 0-4.073l.993-1.431a4.527 4.527 0 1 0-2.909 7.994Zm38.221-9.054v6.085l-4.212-6.085h-1.729v9.054h1.729v-6.085l4.212 6.085h1.729v-9.054ZM460.904 81.64v-7.325h2.672v-1.729h-7.073v1.729h2.672v7.325Zm20.638-19.907h-4.307V59.8h3.454v-1.729h-3.458v-1.933h4.307v-1.729h-6.036v9.054h6.036Zm-1.015 16.176a2.002 2.002 0 1 1-4.005 0v-5.324h-1.733v5.324a3.732 3.732 0 1 0 7.463 0v-5.324h-1.729Zm.266 17.378.045-.065a2.862 2.862 0 1 0-5.236-1.6v.107h1.732v-.107a1.134 1.134 0 0 1 1.133-1.133 1.1 1.1 0 0 1 1.133 1.133 2.25 2.25 0 0 1-.364.88c-.1.141-3.677 5.312-3.677 5.312h5.94v-1.725h-2.641Zm19.644-19.662a3.043 3.043 0 0 0-3.039-3.039h-3.909v9.053h1.729v-2.975h1.1l2.06 2.975h2.055l-2.151-3.107a3.045 3.045 0 0 0 2.155-2.906Zm-3.039 1.311h-2.179v-2.621h2.179a1.31 1.31 0 0 1 0 2.621Zm-2 15.557h.941v7.324h1.729v-9.053h-2.67Zm-35.359 1.933-2.535-3.662h-2.055l3.726 5.382v3.672h1.729v-3.672l3.726-5.382h-2.055ZM233.124 63.463a4.507 4.507 0 0 0 2.909-1.059l-.993-1.431a2.8 2.8 0 1 1 0-4.073l.993-1.431a4.527 4.527 0 1 0-2.909 7.994Zm38.221-9.054v6.085l-4.212-6.085h-1.729v9.054h1.729v-6.085l4.212 6.085h1.729v-9.054ZM233.18 81.64v-7.325h2.672v-1.729h-7.073v1.729h2.672v7.325Zm20.638-19.907h-4.307V59.8h3.454v-1.729h-3.458v-1.933h4.307v-1.729h-6.036v9.054h6.036Zm-1.015 16.176a2.002 2.002 0 1 1-4.005 0v-5.324h-1.733v5.324a3.732 3.732 0 1 0 7.463 0v-5.324h-1.729Zm.266 17.378.045-.065a2.862 2.862 0 1 0-5.236-1.6v.107h1.732v-.107a1.134 1.134 0 0 1 1.133-1.133 1.1 1.1 0 0 1 1.133 1.133 2.25 2.25 0 0 1-.364.88c-.1.141-3.677 5.312-3.677 5.312h5.94v-1.725h-2.641Zm19.644-19.662a3.043 3.043 0 0 0-3.039-3.039h-3.909v9.053h1.729v-2.975h1.1l2.06 2.975h2.055l-2.151-3.107a3.045 3.045 0 0 0 2.155-2.906Zm-3.039 1.311h-2.179v-2.621h2.179a1.31 1.31 0 0 1 0 2.621Zm-2 15.557h.941v7.324h1.729v-9.053h-2.67Zm-35.359 1.933-2.535-3.662h-2.055l3.726 5.382v3.672h1.729v-3.672l3.726-5.382h-2.055Zm455.341-30.963a4.507 4.507 0 0 0 2.909-1.059l-.993-1.431a2.8 2.8 0 1 1 0-4.073l.993-1.431a4.527 4.527 0 1 0-2.909 7.994Zm38.221-9.054v6.085l-4.212-6.085h-1.729v9.054h1.729v-6.085l4.212 6.085h1.729v-9.054ZM687.712 81.64v-7.325h2.672v-1.729h-7.073v1.729h2.672v7.325Zm20.638-19.907h-4.307V59.8h3.454v-1.729h-3.458v-1.933h4.307v-1.729h-6.036v9.054h6.036Zm-1.015 16.176a2.002 2.002 0 1 1-4.005 0v-5.324h-1.733v5.324a3.732 3.732 0 1 0 7.463 0v-5.324h-1.729Zm.266 17.378.045-.065a2.862 2.862 0 1 0-5.236-1.6v.107h1.732v-.107a1.134 1.134 0 0 1 1.133-1.133 1.1 1.1 0 0 1 1.133 1.133 2.25 2.25 0 0 1-.364.88c-.1.141-3.677 5.312-3.677 5.312h5.94v-1.725h-2.641Zm19.644-19.662a3.043 3.043 0 0 0-3.039-3.039h-3.909v9.053h1.729v-2.975h1.1l2.06 2.975h2.055l-2.151-3.107a3.045 3.045 0 0 0 2.155-2.906Zm-3.039 1.311h-2.179v-2.621h2.179a1.31 1.31 0 0 1 0 2.621Zm-2 15.557h.941v7.324h1.729v-9.053h-2.67Zm-35.359 1.933-2.535-3.662h-2.055l3.726 5.382v3.672h1.729v-3.672l3.726-5.382h-2.055ZM119.262 63.463a4.507 4.507 0 0 0 2.909-1.059l-.993-1.431a2.8 2.8 0 1 1 0-4.073l.993-1.431a4.527 4.527 0 1 0-2.909 7.994Zm38.221-9.054v6.085l-4.212-6.085h-1.729v9.054h1.729v-6.085l4.212 6.085h1.729v-9.054ZM119.318 81.64v-7.325h2.672v-1.729h-7.073v1.729h2.672v7.325Zm20.638-19.907h-4.307V59.8h3.454v-1.729h-3.458v-1.933h4.307v-1.729h-6.036v9.054h6.036Zm-1.015 16.176a2.002 2.002 0 1 1-4.005 0v-5.324h-1.733v5.324a3.732 3.732 0 1 0 7.463 0v-5.324h-1.729Zm.266 17.378.045-.065a2.862 2.862 0 1 0-5.236-1.6v.107h1.732v-.107a1.134 1.134 0 0 1 1.133-1.133 1.1 1.1 0 0 1 1.133 1.133 2.25 2.25 0 0 1-.364.88c-.1.141-3.677 5.312-3.677 5.312h5.94v-1.725h-2.641Zm19.644-19.662a3.043 3.043 0 0 0-3.039-3.039h-3.909v9.053h1.729v-2.975h1.1l2.06 2.975h2.055l-2.151-3.107a3.045 3.045 0 0 0 2.155-2.906Zm-3.039 1.311h-2.179v-2.621h2.179a1.31 1.31 0 0 1 0 2.621Zm-2 15.557h.941v7.324h1.729v-9.053h-2.67Zm-35.359 1.933-2.535-3.662h-2.055l3.726 5.382v3.672h1.729v-3.672l3.726-5.382h-2.055Zm455.34-30.963a4.507 4.507 0 0 0 2.909-1.059l-.993-1.431a2.8 2.8 0 1 1 0-4.073l.993-1.431a4.527 4.527 0 1 0-2.909 7.994Zm38.221-9.054v6.085l-4.212-6.085h-1.729v9.054h1.729v-6.085l4.212 6.085h1.729v-9.054ZM573.849 81.64v-7.325h2.672v-1.729h-7.073v1.729h2.672v7.325Zm20.638-19.907h-4.307V59.8h3.454v-1.729h-3.458v-1.933h4.307v-1.729h-6.036v9.054h6.036Zm-1.015 16.176a2.002 2.002 0 1 1-4.005 0v-5.324h-1.733v5.324a3.732 3.732 0 1 0 7.463 0v-5.324h-1.729Zm.266 17.378.045-.065a2.862 2.862 0 1 0-5.236-1.6v.107h1.732v-.107a1.134 1.134 0 0 1 1.133-1.133 1.1 1.1 0 0 1 1.133 1.133 2.25 2.25 0 0 1-.364.88c-.1.141-3.677 5.312-3.677 5.312h5.94v-1.725h-2.641Zm19.644-19.662a3.043 3.043 0 0 0-3.039-3.039h-3.909v9.053h1.729v-2.975h1.1l2.06 2.975h2.055l-2.151-3.107a3.045 3.045 0 0 0 2.155-2.906Zm-3.039 1.311h-2.179v-2.621h2.179a1.31 1.31 0 0 1 0 2.621Zm-2 15.557h.941v7.324h1.729v-9.053h-2.67Zm-35.359 1.933-2.535-3.662h-2.055l3.726 5.382v3.672h1.729v-3.672l3.726-5.382h-2.055Zm399.328-30.963a4.507 4.507 0 0 0 2.909-1.059l-.993-1.431a2.8 2.8 0 1 1 0-4.073l.993-1.431a4.527 4.527 0 1 0-2.909 7.994Zm38.221-9.054v6.085l-4.212-6.085h-1.729v9.054h1.729v-6.085l4.212 6.085h1.729v-9.054ZM972.368 81.64v-7.325h2.672v-1.729h-7.073v1.729h2.672v7.325Zm20.638-19.907h-4.307V59.8h3.454v-1.729h-3.458v-1.933h4.307v-1.729h-6.036v9.054h6.036Zm-1.015 16.176a2.002 2.002 0 1 1-4.005 0v-5.324h-1.733v5.324a3.732 3.732 0 1 0 7.463 0v-5.324h-1.729Zm.266 17.378.045-.065a2.862 2.862 0 1 0-5.236-1.6v.107h1.732v-.107a1.134 1.134 0 0 1 1.133-1.133 1.1 1.1 0 0 1 1.133 1.133 2.25 2.25 0 0 1-.364.88c-.1.141-3.677 5.312-3.677 5.312h5.94v-1.725h-2.641Zm19.644-19.662a3.043 3.043 0 0 0-3.039-3.039h-3.909v9.053h1.729v-2.975h1.1l2.06 2.975h2.055l-2.151-3.107a3.045 3.045 0 0 0 2.155-2.906Zm-3.039 1.311h-2.179v-2.621h2.179a1.31 1.31 0 0 1 0 2.621Zm-2 15.557h.941v7.324h1.729v-9.053h-2.67Zm-35.359 1.933-2.535-3.662h-2.055l3.726 5.382v3.672h1.729v-3.672l3.726-5.382h-2.055ZM346.987 63.463a4.507 4.507 0 0 0 2.909-1.059l-.993-1.431a2.8 2.8 0 1 1 0-4.073l.993-1.431a4.527 4.527 0 1 0-2.909 7.994Zm38.221-9.054v6.085l-4.212-6.085h-1.729v9.054h1.729v-6.085l4.212 6.085h1.729v-9.054ZM347.043 81.64v-7.325h2.672v-1.729h-7.073v1.729h2.672v7.325Zm20.638-19.907h-4.307V59.8h3.454v-1.729h-3.458v-1.933h4.307v-1.729h-6.036v9.054h6.036Zm-1.015 16.176a2.002 2.002 0 1 1-4.005 0v-5.324h-1.733v5.324a3.732 3.732 0 1 0 7.463 0v-5.324h-1.729Zm.266 17.378.045-.065a2.862 2.862 0 1 0-5.236-1.6v.107h1.732v-.107a1.134 1.134 0 0 1 1.133-1.133 1.1 1.1 0 0 1 1.133 1.133 2.25 2.25 0 0 1-.364.88c-.1.141-3.677 5.312-3.677 5.312h5.94v-1.725h-2.641Zm19.644-19.662a3.043 3.043 0 0 0-3.039-3.039h-3.909v9.053h1.729v-2.975h1.1l2.06 2.975h2.055l-2.151-3.107a3.045 3.045 0 0 0 2.155-2.906Zm-3.039 1.311h-2.179v-2.621h2.179a1.31 1.31 0 0 1 0 2.621Zm-2 15.557h.941v7.324h1.729v-9.053h-2.67Zm-35.359 1.933-2.535-3.662h-2.055l3.726 5.382v3.672h1.729v-3.672l3.726-5.382h-2.055ZM62.33 63.463a4.507 4.507 0 0 0 2.909-1.059l-.993-1.431a2.8 2.8 0 1 1 0-4.073l.993-1.431a4.527 4.527 0 1 0-2.909 7.994Zm38.221-9.054v6.085l-4.212-6.085H94.61v9.054h1.729v-6.085l4.212 6.085h1.729v-9.054ZM62.386 81.64v-7.325h2.672v-1.729h-7.073v1.729h2.672v7.325Zm20.638-19.907h-4.307V59.8h3.454v-1.729h-3.458v-1.933h4.307v-1.729h-6.036v9.054h6.036Zm-1.015 16.176a2.002 2.002 0 1 1-4.005 0v-5.324h-1.733v5.324a3.732 3.732 0 1 0 7.463 0v-5.324h-1.729Zm.266 17.378.045-.065a2.862 2.862 0 1 0-5.236-1.6v.107h1.732v-.107a1.134 1.134 0 0 1 1.133-1.133 1.1 1.1 0 0 1 1.133 1.133 2.25 2.25 0 0 1-.364.88c-.1.141-3.677 5.312-3.677 5.312h5.94v-1.725H80.34Zm19.644-19.662a3.043 3.043 0 0 0-3.039-3.039h-3.909v9.053H96.7v-2.975h1.1l2.06 2.975h2.055l-2.151-3.107a3.045 3.045 0 0 0 2.155-2.906Zm-3.039 1.311h-2.179v-2.621h2.179a1.31 1.31 0 0 1 0 2.621Zm-2 15.557h.941v7.324h1.729v-9.053h-2.67Zm-35.359 1.933-2.535-3.662h-2.055l3.726 5.382v3.672h1.729v-3.672l3.726-5.382h-2.055Zm455.341-30.963a4.507 4.507 0 0 0 2.909-1.059l-.993-1.431a2.8 2.8 0 1 1 0-4.073l.993-1.431a4.527 4.527 0 1 0-2.909 7.994Zm38.221-9.054v6.085l-4.212-6.085h-1.729v9.054h1.729v-6.085l4.212 6.085h1.729v-9.054ZM516.918 81.64v-7.325h2.672v-1.729h-7.073v1.729h2.672v7.325Zm20.638-19.907h-4.307V59.8h3.454v-1.729h-3.458v-1.933h4.307v-1.729h-6.036v9.054h6.036Zm-1.015 16.176a2.002 2.002 0 1 1-4.005 0v-5.324h-1.733v5.324a3.732 3.732 0 1 0 7.463 0v-5.324h-1.729Zm.266 17.378.045-.065a2.862 2.862 0 1 0-5.236-1.6v.107h1.732v-.107a1.134 1.134 0 0 1 1.133-1.133 1.1 1.1 0 0 1 1.133 1.133 2.25 2.25 0 0 1-.364.88c-.1.141-3.677 5.312-3.677 5.312h5.94v-1.725h-2.641Zm19.644-19.662a3.043 3.043 0 0 0-3.039-3.039h-3.909v9.053h1.729v-2.975h1.1l2.06 2.975h2.055l-2.151-3.107a3.045 3.045 0 0 0 2.155-2.906Zm-3.039 1.311h-2.179v-2.621h2.179a1.31 1.31 0 0 1 0 2.621Zm-2 15.557h.941v7.324h1.729v-9.053h-2.67Zm-35.359 1.933-2.535-3.662h-2.055l3.726 5.382v3.672h1.729v-3.672l3.726-5.382h-2.055Zm399.328-30.963a4.507 4.507 0 0 0 2.909-1.059l-.993-1.431a2.8 2.8 0 1 1 0-4.073l.993-1.431a4.527 4.527 0 1 0-2.909 7.994Zm38.221-9.054v6.085l-4.212-6.085h-1.729v9.054h1.729v-6.085l4.212 6.085h1.729v-9.054ZM915.437 81.64v-7.325h2.672v-1.729h-7.073v1.729h2.672v7.325Zm20.638-19.907h-4.307V59.8h3.454v-1.729h-3.458v-1.933h4.307v-1.729h-6.036v9.054h6.036Zm-1.015 16.176a2.002 2.002 0 1 1-4.005 0v-5.324h-1.733v5.324a3.732 3.732 0 1 0 7.463 0v-5.324h-1.729Zm.266 17.378.045-.065a2.862 2.862 0 1 0-5.236-1.6v.107h1.732v-.107A1.134 1.134 0 0 1 933 92.489a1.1 1.1 0 0 1 1.133 1.133 2.25 2.25 0 0 1-.364.88c-.1.141-3.677 5.312-3.677 5.312h5.94v-1.725h-2.641Zm19.644-19.662a3.043 3.043 0 0 0-3.039-3.039h-3.909v9.053h1.729v-2.975h1.1l2.06 2.975h2.055l-2.151-3.107a3.045 3.045 0 0 0 2.155-2.906Zm-3.039 1.311h-2.179v-2.621h2.179a1.31 1.31 0 0 1 0 2.621Zm-2 15.557h.941v7.324h1.729v-9.053h-2.67Zm-35.359 1.933-2.535-3.662h-2.055l3.726 5.382v3.672h1.729v-3.672l3.726-5.382h-2.055ZM290.055 63.463a4.507 4.507 0 0 0 2.909-1.059l-.993-1.431a2.8 2.8 0 1 1 0-4.073l.993-1.431a4.527 4.527 0 1 0-2.909 7.994Zm38.221-9.054v6.085l-4.212-6.085h-1.729v9.054h1.729v-6.085l4.212 6.085h1.729v-9.054ZM290.111 81.64v-7.325h2.672v-1.729h-7.073v1.729h2.672v7.325Zm20.638-19.907h-4.307V59.8h3.454v-1.729h-3.458v-1.933h4.307v-1.729h-6.036v9.054h6.036Zm-1.015 16.176a2.002 2.002 0 1 1-4.005 0v-5.324h-1.733v5.324a3.732 3.732 0 1 0 7.463 0v-5.324h-1.729ZM310 95.287l.045-.065a2.862 2.862 0 1 0-5.236-1.6v.107h1.732v-.107a1.134 1.134 0 0 1 1.133-1.133 1.1 1.1 0 0 1 1.133 1.133 2.25 2.25 0 0 1-.364.88c-.1.141-3.677 5.312-3.677 5.312h5.94v-1.725h-2.641Zm19.644-19.662a3.043 3.043 0 0 0-3.039-3.039h-3.909v9.053h1.729v-2.975h1.1l2.06 2.975h2.055l-2.151-3.107a3.045 3.045 0 0 0 2.155-2.906Zm-3.039 1.311h-2.179v-2.621h2.179a1.31 1.31 0 0 1 0 2.621Zm-2 15.557h.941v7.324h1.729v-9.053h-2.67Zm-35.359 1.933-2.535-3.662h-2.055l3.726 5.382v3.672h1.729v-3.672l3.726-5.382h-2.055Zm455.341-30.963a4.507 4.507 0 0 0 2.909-1.059l-.993-1.431a2.8 2.8 0 1 1 0-4.073l.993-1.431a4.527 4.527 0 1 0-2.909 7.994Zm38.221-9.054v6.085l-4.212-6.085h-1.729v9.054h1.729v-6.085l4.212 6.085h1.729v-9.054ZM744.643 81.64v-7.325h2.672v-1.729h-7.073v1.729h2.672v7.325Zm20.638-19.907h-4.307V59.8h3.454v-1.729h-3.458v-1.933h4.307v-1.729h-6.036v9.054h6.036Zm-1.015 16.176a2.002 2.002 0 1 1-4.005 0v-5.324h-1.733v5.324a3.732 3.732 0 1 0 7.463 0v-5.324h-1.729Zm.266 17.378.045-.065a2.862 2.862 0 1 0-5.236-1.6v.107h1.732v-.107a1.134 1.134 0 0 1 1.133-1.133 1.1 1.1 0 0 1 1.133 1.133 2.25 2.25 0 0 1-.364.88c-.1.141-3.677 5.312-3.677 5.312h5.94v-1.725h-2.641Zm19.644-19.662a3.043 3.043 0 0 0-3.039-3.039h-3.909v9.053h1.729v-2.975h1.1l2.06 2.975h2.055l-2.151-3.107a3.045 3.045 0 0 0 2.155-2.906Zm-3.039 1.311h-2.179v-2.621h2.179a1.31 1.31 0 0 1 0 2.621Zm-2 15.557h.941v7.324h1.729v-9.053h-2.67Zm-35.359 1.933-2.535-3.662h-2.055l3.726 5.382v3.672h1.729v-3.672l3.726-5.382h-2.055ZM176.193 63.463a4.507 4.507 0 0 0 2.909-1.059l-.993-1.431a2.8 2.8 0 1 1 0-4.073l.993-1.431a4.527 4.527 0 1 0-2.909 7.994Zm38.221-9.054v6.085l-4.212-6.085h-1.729v9.054h1.729v-6.085l4.212 6.085h1.729v-9.054ZM176.249 81.64v-7.325h2.672v-1.729h-7.073v1.729h2.672v7.325Zm20.638-19.907h-4.307V59.8h3.454v-1.729h-3.458v-1.933h4.307v-1.729h-6.036v9.054h6.036Zm-1.015 16.176a2.002 2.002 0 1 1-4.005 0v-5.324h-1.733v5.324a3.732 3.732 0 1 0 7.463 0v-5.324h-1.729Zm.266 17.378.045-.065a2.862 2.862 0 1 0-5.236-1.6v.107h1.732v-.107a1.134 1.134 0 0 1 1.133-1.133 1.1 1.1 0 0 1 1.133 1.133 2.25 2.25 0 0 1-.364.88c-.1.141-3.677 5.312-3.677 5.312h5.94v-1.725h-2.641Zm19.644-19.662a3.043 3.043 0 0 0-3.039-3.039h-3.909v9.053h1.729v-2.975h1.1l2.06 2.975h2.055l-2.151-3.107a3.045 3.045 0 0 0 2.155-2.906Zm-3.039 1.311h-2.179v-2.621h2.179a1.31 1.31 0 0 1 0 2.621Zm-2 15.557h.941v7.324h1.729v-9.053h-2.67Zm-35.359 1.933-2.535-3.662h-2.055l3.726 5.382v3.672h1.729v-3.672l3.726-5.382h-2.055Zm455.34-30.963a4.507 4.507 0 0 0 2.909-1.059l-.993-1.431a2.8 2.8 0 1 1 0-4.073l.993-1.431a4.527 4.527 0 1 0-2.909 7.994Zm38.221-9.054v6.085l-4.212-6.085h-1.729v9.054h1.729v-6.085l4.212 6.085h1.729v-9.054ZM630.78 81.64v-7.325h2.672v-1.729h-7.073v1.729h2.672v7.325Zm20.638-19.907h-4.307V59.8h3.454v-1.729h-3.458v-1.933h4.307v-1.729h-6.036v9.054h6.036Zm-1.015 16.176a2.002 2.002 0 1 1-4.005 0v-5.324h-1.733v5.324a3.732 3.732 0 1 0 7.463 0v-5.324h-1.729Zm.266 17.378.045-.065a2.862 2.862 0 1 0-5.236-1.6v.107h1.732v-.107a1.134 1.134 0 0 1 1.133-1.133 1.1 1.1 0 0 1 1.133 1.133 2.25 2.25 0 0 1-.364.88c-.1.141-3.677 5.312-3.677 5.312h5.94v-1.725h-2.641Zm19.644-19.662a3.043 3.043 0 0 0-3.039-3.039h-3.909v9.053h1.729v-2.975h1.1l2.06 2.975h2.055l-2.151-3.107a3.045 3.045 0 0 0 2.155-2.906Zm-3.039 1.311h-2.179v-2.621h2.179a1.31 1.31 0 0 1 0 2.621Zm-2 15.557h.941v7.324h1.729v-9.053h-2.67Zm-35.359 1.933-2.535-3.662h-2.055l3.726 5.382v3.672h1.729v-3.672l3.726-5.382h-2.055ZM403.917 63.463a4.507 4.507 0 0 0 2.909-1.059l-.993-1.431a2.8 2.8 0 1 1 0-4.073l.993-1.431a4.527 4.527 0 1 0-2.909 7.994Zm38.221-9.054v6.085l-4.212-6.085h-1.729v9.054h1.729v-6.085l4.212 6.085h1.729v-9.054ZM403.973 81.64v-7.325h2.672v-1.729h-7.073v1.729h2.672v7.325Zm20.638-19.907h-4.307V59.8h3.454v-1.729H420.3v-1.933h4.307v-1.729h-6.036v9.054h6.036Zm-1.015 16.176a2.002 2.002 0 1 1-4.005 0v-5.324h-1.733v5.324a3.732 3.732 0 1 0 7.463 0v-5.324h-1.729Zm.266 17.378.045-.065a2.862 2.862 0 1 0-5.236-1.6v.107h1.732v-.107a1.134 1.134 0 0 1 1.133-1.133 1.1 1.1 0 0 1 1.133 1.133 2.25 2.25 0 0 1-.364.88c-.1.141-3.677 5.312-3.677 5.312h5.94v-1.725h-2.641Zm19.644-19.662a3.043 3.043 0 0 0-3.039-3.039h-3.909v9.053h1.729v-2.975h1.1l2.06 2.975h2.055l-2.151-3.107a3.045 3.045 0 0 0 2.155-2.906Zm-3.039 1.311h-2.179v-2.621h2.179a1.31 1.31 0 0 1 0 2.621Zm-2 15.557h.941v7.324h1.729v-9.053h-2.67Zm-35.359 1.933-2.535-3.662h-2.055l3.726 5.382v3.672h1.729v-3.672l3.726-5.382h-2.055Z" fill="#ded7c3"/></g></g></svg>